<svg width="66" height="55" viewBox="0 0 66 55" fill="none" xmlns="http://www.w3.org/2000/svg">
<line y1="-0.5" x2="5.13928" y2="-0.5" transform="matrix(0.985535 0.169473 -0.159469 0.987203 12.6623 41.9355)" stroke="black"/>
<line y1="-0.5" x2="75.9639" y2="-0.5" transform="matrix(0.811219 -0.584743 0.56068 0.828032 3.37662 45.4194)" stroke="black"/>
<path d="M32.1473 27.5704L37.2123 28.4414" stroke="black"/>
<path d="M42.2078 20.1613L47.2727 21.0323" stroke="black"/>
<path d="M51.4935 13.1935L56.5584 14.0645" stroke="black"/>
<g clip-path="url(#clip0_1_72)">
<g clip-path="url(#clip1_1_72)">
<path d="M22.0303 34.6036L28.0303 35.6036" stroke="black"/>
<g clip-path="url(#clip2_1_72)">
<path d="M22.0303 34.6036L28.0303 35.6036" stroke="black"/>
<g clip-path="url(#clip3_1_72)">
<path d="M22.0303 34.6036L28.0303 35.6036" stroke="black"/>
</g>
</g>
</g>
<g clip-path="url(#clip4_1_72)">
<path d="M22.0303 34.6036L28.0303 35.6036" stroke="black"/>
</g>
<g clip-path="url(#clip5_1_72)">
<path d="M22.0303 34.6036L28.0303 35.6036" stroke="black"/>
</g>
</g>
<path d="M9.28571 53.2581L65 10.5806" stroke="black"/>
<ellipse cx="5.90909" cy="49.3387" rx="5.90909" ry="5.66129" fill="#0D0C0C"/>
<defs>
<clipPath id="clip0_1_72">
<rect width="5.90909" height="1.74194" fill="white" transform="translate(21.9481 34.0968)"/>
</clipPath>
<clipPath id="clip1_1_72">
<rect width="7" height="2" fill="white" transform="translate(21.9481 34.0968)"/>
</clipPath>
<clipPath id="clip2_1_72">
<rect width="7" height="2" fill="white" transform="translate(21.9481 34.0968)"/>
</clipPath>
<clipPath id="clip3_1_72">
<rect width="7" height="2" fill="white" transform="translate(21.9481 34.0968)"/>
</clipPath>
<clipPath id="clip4_1_72">
<rect width="7" height="2" fill="white" transform="translate(21.9481 34.0968)"/>
</clipPath>
<clipPath id="clip5_1_72">
<rect width="7" height="2" fill="white" transform="translate(21.9481 34.0968)"/>
</clipPath>
</defs>
</svg>
