<svg id="Layer_1" data-name="Layer 1" xmlns="http://www.w3.org/2000/svg" viewBox="0 0 1080 1080"><defs><style>.cls-1{fill:#fdfdfd;}.cls-2{fill:#010101;}.cls-3{fill:#020202;}.cls-4{fill:#030303;}.cls-5{fill:#040404;}.cls-6{fill:#080808;}.cls-7{fill:#070707;}.cls-8{fill:#f8f8f8;}.cls-9{fill:#f7f7f7;}.cls-10{fill:#fcfcfc;}.cls-11{fill:#f6f6f6;}</style></defs><title>меркурий силуэт лого</title><path class="cls-1" d="M1081,541.51q0,267.48.09,534.94c0,3.66-.67,4.65-4.54,4.65q-535.44-.16-1070.88,0c-4.21,0-4.77-1-4.77-4.94Q1.07,541,.9,5.8C.9,1.85,1.54.88,5.7.88q535.19.19,1070.38,0c4.43,0,5,1.17,5,5.2Q1080.92,273.79,1081,541.51Z"/><path d="M415.06,417.75v-170c0-1.5.15-3,0-4.5-.29-3.52,1.31-3.63,3.79-2.18,14.18,8.22,28.34,16.49,42.53,24.69q41.36,23.94,82.79,47.74c2.89,1.65,3.85,3.53,3.85,6.72q-.13,84.5-.08,169c0,4.66-.76,5.09-4.73,2.81-11.23-6.43-22.42-12.91-33.67-19.3C504.71,470,504,470.39,504,476q0,56.74-.05,113.48c0,7.28-.09,7.37-7.14,7.37-25.33,0-50.66-.13-76,0-4.69,0-5.85-1.63-5.84-6.14q.21-86.49.09-173Z"/><path d="M679.55,417.46q0-86.46,0-172.92c0-1.36-1.07-3.35.8-4,.89-.29,2.38.82,3.43,1.54,26.93,18.53,53.79,37.16,80.8,55.58,3.14,2.14,3.64,4.64,3.71,7.95.67,32.62,0,65.25.17,97.87.13,33.81,0,67.61.2,101.41.13,26.6.31,53.2,0,79.79-.17,14.68.34,12-11.64,12.06-23.82.12-47.64-.1-71.46.15-4.8.05-6.22-1.16-6.2-6.06q.24-86.7.1-173.41Z"/><path d="M665.88,422.2q0,83.73-.06,167.46c0,2.33,1.61,5.74-2.39,6.63-4.24.93-8.64,1.38-12.62-.75-1.61-.86-.75-3.09-.75-4.69q0-71.24,0-142.47c0-61.15.1-122.3-.23-183.45,0-6.75,2.3-10.27,8-13,8.13-4,8-4.2,8,4.84q0,82.72,0,165.46Z"/><path d="M401,422.35v167.5c0,6.82-.22,7-7,7-8.55,0-8.88-.28-8.88-7.36q0-142.75,0-285.5c0-14.48.34-29,.28-43.43,0-2.93.78-4.69,3.37-5.93,2.09-1,4-2.37,6.06-3.44,1.68-.88,3.19-3.25,5.24-1.93,1.87,1.21.83,3.69.83,5.58q.1,57,.09,114,0,26.75,0,53.5Z"/><path d="M210.23,734.17q-8.94,13.4-17.9,26.8c-2.77,4.15-5.73,8.2-8.18,12.54-1.65,2.91-3.77,3.36-6.84,3.62-4.63.4-7.19-1.5-9.54-5.2-7.15-11.24-14.59-22.29-21.93-33.41a11.91,11.91,0,0,0-4.1-4.13v13.09c0,8.5-.17,17,.09,25.49.11,3.42-1,4.26-4.23,4.08a134.68,134.68,0,0,0-13.48,0c-2.71.12-3.31-.88-3.29-3.43q.14-32,0-64c0-2.88.92-3.75,3.73-3.68,6.49.17,13,.23,19.48,0,3.07-.12,4.84,1,6.48,3.45,7.67,11.69,15.62,23.21,23.24,34.94,2.08,3.21,3,4.08,5.46.18,7.65-11.9,15.76-23.51,23.58-35.3,1.53-2.31,3.12-3.41,6.06-3.28,6.49.28,13,.19,19.49,0,2.7-.06,3.83.56,3.82,3.56q-.18,32.24,0,64.47c0,2.5-.85,3.12-3.15,3-4.67-.14-9.35-.26-14,0-3.32.21-3.77-1.17-3.74-4.06.14-12.81.06-25.62.06-38.44Z"/><path class="cls-2" d="M356.1,434.39c0-51.15.12-102.3-.15-153.45,0-6,1.73-9.53,7.17-11.37,2.64-.89,4.69-4.54,7.36-3.37,3.33,1.46.52,5.06.89,7.69,1.15,8.44.41,16.95.41,25.43q.06,144.21.06,288.42c0,1.67.08,3.34-.06,5-.22,2.7-1.6,4-4.51,4.15-10.94.56-11.15.44-11.15-10.54v-152Z"/><path d="M292.36,777c-13,0-26-.1-39,.07-3.18,0-4.25-.67-4.22-4.08q.24-31.23,0-62.46c0-3.32.63-4.63,4.35-4.61q38.73.26,77.46,0c3.13,0,4.61.57,4.31,4.06a59.28,59.28,0,0,0,0,10.49c.34,3.72-1.25,4.34-4.57,4.31-18.66-.14-37.31,0-56-.11-3.12,0-4.79.28-4.82,4.19,0,4.31,2.56,3.4,4.89,3.4,18.65,0,37.31.09,56-.06,3.4,0,4.87.76,4.49,4.4-.47,4.44,1.8,10.25-.87,13s-8.53.82-13,.85c-15.32.11-30.65,0-46,0-2.76,0-5.53-.78-5.52,4,0,5.07,3.25,3.62,5.7,3.63,18.33.08,36.65.15,55,0,3.73,0,5.08.87,4.69,4.7a54.77,54.77,0,0,0,0,10.48c.3,3.29-1.06,3.81-4,3.78C318.35,776.91,305.35,777,292.36,777Z"/><path d="M342.88,439V590c0,6.47-.21,6.71-6.68,6.87a37.06,37.06,0,0,1-5.48-.11c-2.4-.31-4-1.54-3.74-4.31.06-.66,0-1.33,0-2q0-146.47-.11-292.94c0-5.39,1.57-8.48,6.35-11,9.93-5.13,9.68-6.59,9.67,6Q342.83,365.75,342.88,439Z"/><path d="M635.87,431q0,79.23,0,158.48c0,2.33,1.14,5.45-1.85,6.68-3.58,1.48-7.55,1.18-11.2.14-2.41-.7-1.73-3.3-1.73-5.23q0-47.5,0-95,0-109.48-.14-219a5.42,5.42,0,0,1,2.46-5c1.79-1.19,3.67-2.26,5.54-3.33,6.86-3.95,6.93-3.95,6.94,3.77Q635.9,351.72,635.87,431Z"/><path d="M606.85,439.55q0,75.45,0,150.91c0,2.51.45,5.6-2.81,6.06-3.87.55-8,1.11-11.64-1-.77-.44-.58-2.78-.58-4.25q-.06-26.73,0-53.47c0-80.07.13-160.14-.12-240.21,0-5.94,2.11-9.15,6.84-11.47,2.33-1.14,4.58-4.15,7-2.92,2.63,1.32,1.32,4.87,1.32,7.41q.12,74.46.06,148.92Z"/><path d="M940.56,731.81c-5.66,5.06-10.44,9.3-15.18,13.59-10.25,9.28-20.55,18.5-30.64,28a10.55,10.55,0,0,1-8.44,3.16c-4.32-.24-8.67-.14-13,0-2.16.06-3.45-.26-3.44-2.88q.09-32.75,0-65.5c0-2.21.86-2.9,3-2.85,4.5.09,9,.22,13.49,0,3.43-.2,4.59.78,4.51,4.4-.25,11.33-.11,22.67-.06,34,0,1.6-.49,3.27.68,5.38l20.33-18.34c8.28-7.49,16.63-14.89,24.79-22.51a9.58,9.58,0,0,1,7.54-2.93c4.49.23,9,.15,13.49,0,2.4-.06,3.61.4,3.59,3.26q-.16,32.24,0,64.49c0,2.52-.65,3.86-3.37,3.47-.33-.05-.67,0-1,0-5.25-.37-12.07,2.26-15.34-1.07-3-3.08-.79-9.84-.85-15C940.48,751.31,940.56,742.21,940.56,731.81Z"/><path d="M699.76,706q17.49,0,35,0c7.62,0,10.31,2.66,10.32,10.11,0,11.49,0,23,0,34.48,0,6.28-2.85,9-9.2,9-17.16,0-34.32.09-51.48-.06-3.39,0-4.76.76-4.55,4.39.25,4.11,1.45,9.62-.64,12-2.47,2.84-8.12.84-12.39.92-7.71.16-7.71,0-7.71-7.87,0-19.49.1-39-.1-58.47,0-3.83,1.09-4.76,4.78-4.68C675.76,706.15,687.76,706,699.76,706Z"/><path d="M832.18,731.72c-14,12.69-27.32,24-39.73,36.3-6.56,6.49-13.29,9.41-22.47,8.59-8.33-.74-8.38-.16-8.38-8.54,0-19.33.14-38.66-.12-58-.05-4.19,1.3-5.18,5.08-4.85a54.65,54.65,0,0,0,10,0c4.39-.44,6.05.71,5.89,5.6-.41,12.47-.14,25-.14,37.49,2.28.71,3-1.28,4.08-2.25,13.88-12.47,27.73-25,41.45-37.61a10.51,10.51,0,0,1,8.41-3.23c4.31.27,8.66.16,13,0,2.41-.08,3.6.41,3.59,3.25q-.17,32.25,0,64.5c0,2.47-.54,3.67-3.35,3.51-5.46-.3-12.35,1.66-16-1s-1-9.93-1.17-15.17C832,751.25,832.18,742.13,832.18,731.72Z"/><path d="M392.42,706q17.49,0,35,0c7.57,0,10.35,2.74,10.35,10.12q0,16.74,0,33.49c0,7.59-2.52,10-10.28,10-16.82,0-33.65.09-50.48-.07-3.42,0-4.76.76-4.53,4.4.26,4.11,1.43,9.64-.67,12-2.45,2.82-8.11.83-12.37.92-7.69.15-7.69,0-7.69-7.87,0-19.5.11-39-.09-58.49,0-3.81,1.06-4.75,4.77-4.67C368.42,706.15,380.42,706,392.42,706Z"/><path d="M475.35,752c0,6.8-.31,13.57.11,20.3.26,4.19-1.29,5-5,4.78-4.48-.29-9-.16-13.5,0-2.17.06-2.83-.7-2.82-2.88q.11-32.49,0-65c0-2.37.78-3.44,3.17-3.16a4.17,4.17,0,0,0,.5,0c5.47.12,12.55-1.8,16,.91,3.67,2.89.77,10.29,1.17,15.7.16,2.27,0,4.56,0,7.93,7-4.85,13.73-8.58,19.31-13.6,10.36-9.34,22.1-12.75,35.7-11,2.72.35,5.52,0,8.67,1-4.71,3.49-9.41,7-14.15,10.48-9.14,6.68-18.24,13.43-27.5,19.94-2.81,2-3.08,3-.17,5.22,14.21,11,28.25,22.26,43.46,34.3-10.71,0-20.22.05-29.74-.08-1,0-2-1.05-2.9-1.73-9.2-6.89-18.36-13.83-27.59-20.69C478.81,753.49,477.81,752,475.35,752Z"/><path d="M577.75,388.47c0,27.63-.1,55.26.11,82.89,0,4.44-1.29,7.2-5.29,8.93-3.28,1.42-6.63,5.57-9.6,4-2.59-1.4-1-6.38-1-9.76-.05-53.93,0-107.86-.12-161.79,0-4.1,1.07-6.52,4.83-8.1a50.52,50.52,0,0,0,7.3-4.26c2.85-1.81,3.82-.81,3.81,2.24,0,7.32,0,14.65,0,22q0,31.95,0,63.92Z"/><path d="M551.78,706c8.34,0,15.66.12,23-.07,2.36-.07,3.61.93,4.88,2.64,5.07,6.82,10.54,13.36,15.24,20.41,3,4.46,4.51,3.16,7-.19,4.88-6.75,10.11-13.24,15-20a6.18,6.18,0,0,1,5.8-2.88c7.12.18,14.25.06,21.23.06a2.05,2.05,0,0,1-.5,2.52c-16.87,21.89-33.78,43.75-50.53,65.72A6.17,6.17,0,0,1,587,777c-5.32-.18-10.66-.08-16,0-3.88,0-4.46-1.52-2.32-4.54,4.33-6.11,8.46-12.38,13.52-17.92,2.75-3,3-5.35.14-8.81-9.76-12-19.1-24.38-28.59-36.62C553.21,708.36,552.76,707.53,551.78,706Z"/><path class="cls-2" d="M914.61,695.34c-5.16,0-10.32-.1-15.47,0-2.42.08-3.24-.75-3.16-3.14.14-4.15.16-8.32,0-12.47-.11-2.68.93-3.33,3.5-3.3q15.46.21,30.92,0c2.66,0,3.63.78,3.43,3.39-.38,4.93,2,11.19-.9,14.47s-9.09.65-13.84,1C917.6,695.43,916.1,695.34,914.61,695.34Z"/><path class="cls-3" d="M365.75,885.57v-2c0-12.65,0-12.65,12.73-11.79,6.76.45,9.75,5.94,6,11.46-1.07,1.58-1,2.11.11,3.59,4.18,5.46,1.53,12.11-5.24,13-3.77.48-7.64.07-11.47.2-2.36.08-2.15-1.46-2.15-3Z"/><path class="cls-3" d="M860.75,885.54v-2c0-13.5,0-13.5,13.76-11.69,5.7.75,8.47,6.28,5.32,11-1,1.5-1.74,2.08-.23,4,4.27,5.37,1.51,12.09-5.26,13-3.77.48-7.65.08-11.47.2-2.39.08-2.11-1.52-2.12-3C860.74,893.19,860.75,889.37,860.75,885.54Z"/><path class="cls-2" d="M605,880.5c-1.81,3.48-3.6,7-5.43,10.44-1.56,2.95-3.18,3.25-4.86.06a71.87,71.87,0,0,0-6.56-10.79c0,5.53,0,11.06,0,16.59,0,1.27.82,3.32-1.8,3.17-2.14-.13-1.49-1.86-1.5-3q-.09-11,0-22c0-1.17-.71-2.86,1.36-3.18,1.57-.25,2.42.68,3.08,2,2.42,4.71,4.89,9.39,7.8,15,2.67-5.06,5-9.51,7.38-13.9.75-1.36,1.16-3.45,3.4-3,2.56.51,1.37,2.69,1.39,4.1.13,7,.09,14,0,21,0,1.13.78,2.93-1.39,3.06-2.46.14-1.9-1.81-1.91-3.17,0-5.32,0-10.63,0-15.95Z"/><path class="cls-2" d="M711.11,880.3c0,5.47.06,10.94,0,16.41,0,1.23.95,3.3-1.69,3.27-2.17,0-1.6-1.76-1.6-2.93,0-7.49,0-15,0-22.48,0-1.07-.43-2.48,1.28-2.77,1.54-.26,2.45.57,3.13,1.88,2.48,4.81,5,9.58,7.89,15.09,2.61-5,4.7-9.29,7-13.42.82-1.44,1.11-4,3.59-3.51,2.84.5,1.45,3,1.48,4.48.16,7,.09,14,.05,21,0,1,.54,2.49-1.31,2.66s-2-1.19-2-2.59V880.22c-3,2.85-3.81,6.4-5.66,9.29-.85,1.33-.92,3.39-3,3.56-2.29.17-2.41-2-3.16-3.31-1.78-3.17-3.41-6.42-5.1-9.63Z"/><path class="cls-2" d="M759.64,879.24q-6.45,9.12-12.91,18.22c-.94,1.32-1.75,3.12-3.83,2.45s-1.08-2.54-1.1-3.84c-.1-7.15-.07-14.3,0-21.45,0-1.21-.5-2.81,1.68-2.86s1.78,1.5,1.79,2.76a122.09,122.09,0,0,0,1,18.11q6.22-8.8,12.45-17.6c1.11-1.57,1.94-4,4.42-3.12s1.09,3.18,1.13,4.8c.14,6.81.08,13.63,0,20.44,0,1.21.47,2.83-1.71,2.85s-1.74-1.59-1.75-2.81c0-5.91,0-11.82,0-17.72Z"/><path class="cls-4" d="M830.74,887.16c0-12.78,4.58-17.37,13.92-15.53l.49.1c4.49,1,6.79,4.09,7.3,8.38.76,6.41,2.11,13.3-3.77,18.08-3.89,3.17-8.84,2.93-13.2.62C830.1,896,830.71,890.58,830.74,887.16Z"/><path class="cls-4" d="M393.75,885.57c0-11.2,4.59-15.79,13.93-13.93.33.06.66.11,1,.2,4.41,1.27,6.47,4.53,6.89,8.78.63,6.26,1.86,13-3.88,17.59-3.75,3-8.47,2.85-12.76.8C393.09,896.24,393.74,890.72,393.75,885.57Z"/><path class="cls-4" d="M577,885.74c0,10.89-4.27,15.51-13.47,14.35a11.81,11.81,0,0,1-3.77-1.12c-4.8-2.39-7-12.45-4.63-20.52,1.5-5.06,6.07-7.7,12.23-7.05C574,872.09,577,876.47,577,885.74Z"/><path class="cls-4" d="M676.75,885.53c0-11.17,4.62-15.77,14-13.89.33.07.66.11,1,.21,4.4,1.29,6.44,4.56,6.86,8.81.61,6.26,1.86,13-3.92,17.58-3.76,3-8.49,2.82-12.77.76C676.08,896.21,676.75,890.68,676.75,885.53Z"/><path class="cls-2" d="M445.72,871.75c2.33,0,4.66,0,7,0,.94,0,2.1-.17,2.24,1.27.15,1.59-.84,2-2.17,2-3.49,0-7,.21-10.48-.06s-3.11,2-3.05,4.12-.74,4.55,2.93,4.35a48.85,48.85,0,0,1,7.44.35c3.79.35,6.1,2.45,6.55,6.27.48,4-.75,7.35-4.67,9-4.61,1.93-9.54.73-14.33.91-1.8.06-1.4-1.55-1.4-2.61,0-7.66.06-15.32-.07-23,0-2.4,1.09-2.71,3-2.62C441.05,871.83,443.39,871.75,445.72,871.75Z"/><path class="cls-4" d="M619.75,884.71c.35-3.61-1.91-9.41.78-12.13s8.5-.73,12.93-.8c7.65-.13,7.66,0,7.66,7.83,0,5.81,0,11.63,0,17.44,0,1.12.76,2.87-1.51,2.94s-2.2-1.53-2.21-3c0-6.15-.1-12.3,0-18.45.06-2.5-.6-3.38-3.3-3.46-10.85-.33-10.84-.44-10.84,10.36q0,6,0,12c0,1.32.16,2.76-1.94,2.63-1.78-.11-1.54-1.4-1.55-2.51C619.73,893.51,619.75,889.52,619.75,884.71Z"/><path class="cls-5" d="M498.94,900.23c-3.62,0-7-.72-9.13-4-.59-.9-1.64-2.13-.51-3.08a2.18,2.18,0,0,1,3.39.74c2.15,3.49,5.46,3.49,8.81,2.83,2.66-.52,4.55-2.17,4.35-5.19s-2.25-4.24-5-4.5c-1-.09-2,0-3,0s-1.92-.31-2-1.64.75-1.67,1.88-1.61c.33,0,.67,0,1,0,2.79-.08,5.38-.53,6.11-3.84a3.93,3.93,0,0,0-2.3-4.53,7.34,7.34,0,0,0-8.37.69,3.38,3.38,0,0,0-1.11,1.61,2.17,2.17,0,0,1-3.24,1.28c-1.92-.87-.44-2.35.05-3.31,2.08-4.11,9.81-5.71,14.71-3.19,4.23,2.18,5.08,5.89,2.35,11.3-.52,1-.88,1.54.13,2.43a7.32,7.32,0,0,1,1.68,9.5C506.8,899.44,503,900.3,498.94,900.23Z"/><path class="cls-3" d="M227.13,900c-2.29-.11-2.31-1-1.78-2.38,3.12-8,6.11-16.14,9.34-24.14a3.05,3.05,0,0,1,5.64-.12c3.31,8.14,6.34,16.39,9.47,24.6.33.85.34,1.67-.76,1.93a2.27,2.27,0,0,1-2.87-1.32c-.91-1.83-.6-4.84-3.13-5.17a64.66,64.66,0,0,0-11-.09c-2.22.1-1.93,2.42-2.67,3.77S228.71,900.16,227.13,900Z"/><path class="cls-3" d="M219.47,872.47c-1.93,3.15-3.63,6.36-5.75,9.27-1.81,2.49-2.08,4.47,0,7a64.49,64.49,0,0,1,5.1,8c.5.86,2.12,1.89.8,2.89a2.53,2.53,0,0,1-3.84-.89c-1.87-2.94-3.94-5.76-5.68-8.77-1.26-2.17-2.91-3.23-5.29-2.6-2.65.71-1.3,3-1.47,4.64-.22,2.14-.05,4.32-.09,6.48a1.4,1.4,0,0,1-1.49,1.55c-1.2.06-1.93-.35-1.94-1.61q0-12.46,0-24.93c0-1.26.64-1.72,1.85-1.7s1.65.79,1.64,1.92c0,2.33-.08,4.66,0,7,.06,1.17-.68,2.94,1.37,3.16,1.58.17,3.29.48,4.38-1.42,1.65-2.88,3.57-5.6,5.22-8.47C215.42,871.87,216.83,871.1,219.47,872.47Z"/><path class="cls-4" d="M801.85,885.44c-.11-11.41,5.25-16.28,14.92-13.63a8.92,8.92,0,0,1,6.65,6.13c.31,1,1.37,2.36-.33,2.9-1.08.34-2.6.78-3.21-1.2-1.45-4.77-5-5.93-9.41-4.83-4.79,1.18-5.12,5.12-5.19,9.07a38.58,38.58,0,0,0,.23,7c.51,3.15,2.1,5.66,5.66,6s6.91.09,8.29-3.81c.71-2,1.88-3,3.58-2.18,2,.94.38,2.66-.1,3.78-1.83,4.28-6.85,6.3-12.81,5.41a9.44,9.44,0,0,1-8.25-8.66A59.81,59.81,0,0,1,801.85,885.44Z"/><path class="cls-3" d="M550.21,872.73c-9.83,8.2-8.49,16.44-1,24.66.64.7,1.53,1.74.16,2.37a2.55,2.55,0,0,1-3.49-.91c-2-3.07-4.11-6-6-9.18-1.19-2-2.74-2.82-4.93-2.37-2.84.58-1.49,2.9-1.66,4.48a54.17,54.17,0,0,0,0,6c0,1.25-.11,2.32-1.84,2.25-1.36,0-1.64-.84-1.65-1.92q0-12.23,0-24.44c0-1.15.35-1.85,1.67-1.9,1.68-.06,1.85.94,1.84,2.23,0,2.16-.09,4.33,0,6.48.06,1.2-.69,3,1.19,3.32s3.56.51,4.72-1.64c1.5-2.77,3.37-5.33,4.94-8.06C545.27,872.1,546.63,871.07,550.21,872.73Z"/><path class="cls-4" d="M310.91,885.51c-.17-11.46,5.1-16.3,14.79-13.72a9.21,9.21,0,0,1,6.89,6.55c.28.93.9,2.13-.43,2.49-1.1.3-2.65.83-3.25-1.13-1.44-4.77-4.91-6-9.37-4.91-4.8,1.14-5.17,5.06-5.27,9a38.62,38.62,0,0,0,.06,6c.44,3.49,1.7,6.56,5.77,7.08,3.7.46,7.23,0,8.53-4.19.64-2,1.95-2.32,3.36-1.82,2.13.75.52,2.29.16,3.29-1.67,4.51-6.26,6.64-12.45,6-4.69-.51-8.13-3.57-8.74-8.14A48.27,48.27,0,0,1,310.91,885.51Z"/><path class="cls-4" d="M772.93,885.68c-.19-11.6,4.88-16.37,14.61-13.93,3.09.78,5.48,2.46,6.59,5.52.41,1.15,2.07,2.79-.3,3.62-1.57.56-2.6,0-3.18-2-1.06-3.56-4.13-4.69-7.5-4.49-5.7.33-7.94,5.46-6.87,15.22.6,5.38,3.47,7.77,8.65,7.32,3-.25,5.06-1.69,5.83-4.58.49-1.88,1.86-1.89,3.08-1.53,2.13.62.74,2.13.37,3.15-1.64,4.59-6.1,6.75-12.34,6.14-4.74-.46-8.23-3.45-8.89-8A46.67,46.67,0,0,1,772.93,885.68Z"/><path class="cls-6" d="M272,889.43c-.51-.08-.86-.24-1.11-.15-4.56,1.67-9.44,2.44-13.12-1.07-4.18-4-2-9.74-2.37-14.76-.08-1.25.81-1.64,1.94-1.7,1.7-.09,1.81,1,1.8,2.24,0,2.5,0,5,0,7.48,0,4.41,2.68,5.67,6.55,5.51,3.7-.14,6.6-1.08,6.33-5.7-.14-2.48,0-5,0-7.47,0-1,0-2,1.45-2.06s2.21.46,2.21,2q0,12.21,0,24.41a1.64,1.64,0,0,1-1.75,1.88c-1.66.11-1.9-.85-1.89-2.15C272,895,272,892.22,272,889.43Z"/><path d="M284.75,885.51c0-3.67.12-7.34,0-11-.1-2.23.71-2.88,2.86-2.81,4.33.14,8.66,0,13,.06,1.11,0,2.46-.21,2.43,1.62s-1.34,1.59-2.48,1.6c-3.17,0-6.34.13-9.49,0-4.31-.2-2.52,3-2.72,4.87s-.79,4.52,2.89,4.21c2.81-.24,5.66-.06,8.49,0,1.13,0,2.47-.25,2.4,1.6s-1.46,1.46-2.53,1.48c-2.83,0-5.66.12-8.49,0-4.24-.19-2.67,3-2.74,4.89s-1.24,5,2.88,4.82c3.33-.16,6.66,0,10,0,1.07,0,2,.15,2,1.53s-.67,1.72-1.87,1.71c-4.82,0-9.65-.07-14.48,0-2.41,0-2.08-1.57-2.09-3C284.74,893.16,284.75,889.33,284.75,885.51Z"/><path d="M473.09,871.76c2.33,0,4.66,0,7,0,1.06,0,2,.23,1.91,1.65s-.94,1.57-2,1.57a72.66,72.66,0,0,1-9-.06c-4.43-.54-3.6,2.32-3.81,4.93-.26,3.14.58,4.61,4,4.2a62.19,62.19,0,0,1,7.48,0c1.16,0,2.46-.21,2.38,1.63s-1.49,1.43-2.55,1.45a71,71,0,0,1-8,0c-4.4-.42-3.18,2.69-3.27,4.93-.1,2.44-.73,5.2,3.46,4.82,3.14-.29,6.32,0,9.49,0,1.07,0,2,.18,2,1.56s-.71,1.69-1.9,1.68c-4.83,0-9.66,0-14.49,0-1.48,0-2.07-.58-2.07-2,0-8,.05-16,0-24,0-1.77.7-2.32,2.37-2.25C468.42,871.83,470.76,871.76,473.09,871.76Z"/><path class="cls-2" d="M649.76,885.5c0-3.65.1-7.31,0-11-.09-2.19.64-2.94,2.83-2.83,3.14.17,6.31-.05,9.46.1,5.06.25,7.92,3,8.23,7.49.36,5.37-1.66,8.09-6.86,9.21-.33.07-.67.08-1,.17-2.87.85-6.78-1-8.51,1.07-1.41,1.74-.56,5.36-.62,8.15,0,1.37-.36,2.21-2,2.1-1.39-.09-1.52-1-1.52-2C649.75,893.81,649.76,889.66,649.76,885.5Z"/><path class="cls-7" d="M346.88,887.52a43.69,43.69,0,0,1,0-5.49c.62-4.85-.18-8.17-6.28-6.95-1.34.27-2.79,0-2.6-2,.17-1.79,1.62-1.34,2.67-1.35,5.32,0,10.65,0,16,0,1.13,0,2.45-.22,2.53,1.54.1,2.09-1.48,2.06-2.72,1.8-5.66-1.18-6.16,1.92-5.9,6.38.3,5.15.08,10.32.06,15.48,0,1.49.15,3.17-2.17,3s-1.55-1.79-1.58-3C346.82,893.84,346.88,890.68,346.88,887.52Z"/><path class="cls-1" d="M702.06,724.73c6.16,0,12.33.15,18.48-.06,2.9-.1,3.6.89,3.66,3.68.28,12.9.36,12.9-12.37,12.9-9.32,0-18.65-.1-28,.06-3,.05-4-.81-4-3.93-.17-12.65-.29-12.65,12.22-12.65Z"/><path class="cls-1" d="M394.92,741.25c-6.17,0-12.34-.16-18.5.06-3.12.11-3.89-1-3.92-4-.16-12.55-.26-12.55,12.29-12.55,9.33,0,18.66.09,28-.06,2.86,0,4.1.44,4.15,3.74.2,12.83.33,12.83-12.51,12.83Z"/><path class="cls-8" d="M374.72,886.64c3.7.07,7.72-.13,8.12,5.05.29,3.81-2.61,4.94-9.45,5.33-5.62.32-3.75-3.37-4.19-6.13C368.41,885.94,371.65,886.47,374.72,886.64Z"/><path class="cls-9" d="M373.74,883.76c-3.48.78-4.63-.71-4.67-4.75s1.58-4.85,5-4.41c1,.13,2,0,3,.06,2.85.28,5.4,1.12,5.17,4.66-.21,3.32-2.56,4.36-5.52,4.44C375.84,883.78,375,883.76,373.74,883.76Z"/><path class="cls-8" d="M869.13,896.9c-1.39-.62-4.24,1.35-4.71-1.52-.44-2.68-1.47-6.77.53-8,2.94-1.84,7.15-1.32,10.55.21a4.38,4.38,0,0,1,2.19,5.57c-1.13,3.55-4.11,4-7.28,3.77C870.08,896.88,869.74,896.9,869.13,896.9Z"/><path class="cls-9" d="M868.94,883.73c-3.51.75-4.76-.53-4.89-4.66-.16-4.71,2.21-4.7,5.43-4.45,1.15.09,2.31.13,3.46.22,2.74.2,4.34,1.6,4.26,4.43s-1.94,4.07-4.48,4.43A27.53,27.53,0,0,1,868.94,883.73Z"/><path class="cls-10" d="M848.83,886.1c.12,8.19-2.16,11.28-7.87,10.87-5.23-.38-7-4-6.71-13.29.21-6,2.88-9.51,7.4-9.32,3.9.16,6.54,2.28,7.14,6.29A38.09,38.09,0,0,1,848.83,886.1Z"/><path class="cls-10" d="M412.1,885.35a41.42,41.42,0,0,1-.5,6.43,6.31,6.31,0,0,1-6.38,5.21c-3.53.16-6.15-1.12-7.23-4.69-1.18-3.89-.95-7.85-.34-11.79.64-4.12,3.38-6.19,7.24-6.08,4.15.12,6.63,2.66,7,6.94.1,1.32,0,2.65,0,4Z"/><path class="cls-10" d="M572.82,886c.14,8.38-2.36,11.63-8.26,10.93-5-.58-6.78-4.45-6.3-13.66.28-5.64,2.92-9.06,7.3-8.93,3.89.12,6.57,2.21,7.21,6.2A34.28,34.28,0,0,1,572.82,886Z"/><path class="cls-10" d="M695.08,885.52a41.84,41.84,0,0,1-.4,5.94,6.43,6.43,0,0,1-6.63,5.54c-3.56.1-6.1-1.28-7.11-4.86a26.41,26.41,0,0,1-.25-11.8c.71-4.12,3.51-6.08,7.36-5.89,4.18.2,6.55,2.82,6.82,7.09.08,1.32,0,2.65,0,4Z"/><path class="cls-11" d="M439.35,891.6c-.84-3.87.16-5.86,4.68-5.46,3.91.35,8,0,8.64,5.17.46,3.64-2.85,5.3-8.66,5.7C439.51,897.31,438.49,895.46,439.35,891.6Z"/><path class="cls-8" d="M232.06,889.79l5.48-14.38L243,889.79Z"/><path class="cls-9" d="M653.43,880.35c-1.32-4.9,1-5.68,5.14-5.44,5.84.33,8.5,1.71,8.13,5.47-.5,5.15-4.43,5.17-8.41,5.46C653.8,886.17,652.08,884.6,653.43,880.35Z"/></svg>